<mxfile host="app.diagrams.net" modified="2023-09-30T07:37:31.804Z" agent="Mozilla/5.0 (Macintosh; Intel Mac OS X 10_15_7) AppleWebKit/605.1.15 (KHTML, like Gecko) Version/17.0 Safari/605.1.15" version="22.0.0" etag="8kXCB7AnPEFuWH3Q8ubn" type="github">
  <diagram name="第 1 页" id="VFFMZAt2kuRoaDJbwKU7">
    <mxGraphModel>
      <root>
        <mxCell id="0" />
        <mxCell id="1" parent="0" />
      </root>
    </mxGraphModel>
  </diagram>
</mxfile>
